<?xml version="1.0" encoding="iso-8859-1"?>
<!-- Uploaded to: SVG Repo, www.svgrepo.com, Generator: SVG Repo Mixer Tools -->
<svg fill="#ffffff" version="1.1" id="Layer_1" xmlns="http://www.w3.org/2000/svg" xmlns:xlink="http://www.w3.org/1999/xlink" 
	 viewBox="0 0 492.308 492.308" xml:space="preserve">
<g>
	<g>
		<path d="M312.904,172.014c-54.577,0-98.981,44.404-98.981,98.99c0,54.577,44.404,98.981,98.981,98.981
			c54.587,0,98.99-44.404,98.99-98.981C411.894,216.418,367.49,172.014,312.904,172.014z M312.904,350.293
			c-43.721,0-79.288-35.567-79.288-79.289c0-43.721,35.567-79.298,79.288-79.298c43.721,0,79.298,35.577,79.298,79.298
			C392.202,314.726,356.625,350.293,312.904,350.293z"/>
	</g>
</g>
<g>
	<g>
		<path d="M312.913,221.255c-27.442,0-49.76,22.317-49.76,49.75c0,27.433,22.317,49.75,49.76,49.75
			c27.433,0,49.75-22.317,49.75-49.75C362.663,243.572,340.346,221.255,312.913,221.255z M312.913,301.063
			c-16.577,0-30.067-13.481-30.067-30.058c0-16.577,13.49-30.058,30.067-30.058c16.577,0,30.058,13.481,30.058,30.058
			C342.971,287.582,329.49,301.063,312.913,301.063z"/>
	</g>
</g>
<g>
	<g>
		<rect x="64" y="157.735" width="96" height="19.692"/>
	</g>
</g>
<g>
	<g>
		<path d="M452.923,97.312h-20.668L413.635,47.62H257.942l-18.614,49.692h-97.386v-6.827c0-21.26-17.298-38.558-38.558-38.558
			c-21.269,0-38.567,17.298-38.567,38.558v6.827H39.385C17.663,97.312,0,114.976,0,136.697v268.606
			c0,21.721,17.664,39.385,39.385,39.385h413.538c21.721,0,39.385-17.664,39.385-39.385V136.697
			C492.308,114.976,474.644,97.312,452.923,97.312z M271.596,67.312h128.385l11.25,30H260.356L271.596,67.312z M84.51,90.486
			c0-10.404,8.471-18.865,18.875-18.865s18.865,8.462,18.865,18.865v6.827H84.51V90.486z M472.615,405.303
			c0,10.856-8.837,19.692-19.692,19.692H39.385c-10.856,0-19.692-8.837-19.692-19.692V136.697c0-10.856,8.837-19.692,19.692-19.692
			h25.433h77.125h90.01h207.683h13.288c10.856,0,19.692,8.837,19.692,19.692V405.303z"/>
	</g>
</g>
</svg>